<!-- Generator: Adobe Illustrator 24.0.1, SVG Export Plug-In  -->
<svg version="1.1" xmlns="http://www.w3.org/2000/svg" xmlns:xlink="http://www.w3.org/1999/xlink" x="0px" y="0px" width="181px"
	 height="55.5px" viewBox="0 0 181 55.5" style="enable-background:new 0 0 181 55.5;" xml:space="preserve">
<style type="text/css">
	.st0{fill:#FFFFFF;}
	.st1{fill:#FFFFFF;stroke:#FFFFFF;stroke-width:0.2;stroke-miterlimit:10;}
</style>
<defs>
</defs>
<g>
	<path class="st0" d="M59.6,14.9h3.7l5.8,17.9h-3.4l-1.4-4.8h-6L57,32.8h-3.2L59.6,14.9z M63.7,25.5l-0.6-2.2
		c-0.6-1.9-1.1-3.9-1.6-5.9h-0.1c-0.5,2-1,4-1.6,5.9l-0.6,2.2H63.7z M70.1,23.9c0-5.9,3.7-9.3,8.2-9.3c2.2,0,4,1.1,5.2,2.3l-1.7,2
		c-0.9-0.9-2-1.6-3.4-1.6c-2.9,0-5,2.5-5,6.5c0,4.1,1.9,6.6,4.9,6.6c1.6,0,2.8-0.7,3.8-1.8l1.7,2c-1.4,1.7-3.3,2.6-5.6,2.6
		C73.7,33.1,70.1,29.8,70.1,23.9z M92.7,25.8H90v7h-3.2V14.9h6c3.7,0,6.6,1.3,6.6,5.3c0,2.7-1.4,4.4-3.6,5.1l4.3,7.5h-3.6L92.7,25.8
		z M92.5,23.3c2.5,0,3.8-1,3.8-3.1c0-2.1-1.3-2.8-3.8-2.8H90v5.8H92.5z M102.1,23.8c0-5.8,3.2-9.2,7.9-9.2c4.7,0,7.9,3.4,7.9,9.2
		c0,5.8-3.2,9.3-7.9,9.3C105.3,33.1,102.1,29.6,102.1,23.8z M114.6,23.8c0-4-1.8-6.4-4.6-6.4c-2.8,0-4.6,2.4-4.6,6.4
		c0,4,1.8,6.6,4.6,6.6C112.8,30.4,114.6,27.8,114.6,23.8z M121.5,14.9h3.6l3.2,8.7c0.4,1.1,0.8,2.3,1.1,3.5h0.1
		c0.4-1.2,0.7-2.4,1.1-3.5l3.1-8.7h3.6v17.9h-2.9v-8.2c0-1.7,0.3-4,0.4-5.7h-0.1l-1.4,4.2l-2.9,8h-1.9l-3-8l-1.4-4.2h-0.1
		c0.2,1.7,0.4,4,0.4,5.7v8.2h-2.9V14.9z M141.8,14.9h3.2v17.9h-3.2V14.9z M149.5,14.9h3.3l5.6,10.1l1.8,3.8h0.1
		c-0.2-1.8-0.4-4.1-0.4-6.1v-7.8h3v17.9h-3.3l-5.6-10.1l-1.8-3.8h-0.1c0.2,1.9,0.4,4,0.4,6v7.8h-3V14.9z M166.5,23.9
		c0-5.9,3.7-9.3,8.5-9.3c2.5,0,4.3,1.1,5.4,2.3l-1.7,2c-0.9-0.9-1.9-1.6-3.6-1.6c-3.2,0-5.3,2.5-5.3,6.5c0,4.1,1.9,6.6,5.5,6.6
		c1,0,2-0.3,2.5-0.8v-3.9h-3.4v-2.6h6.2V31c-1.2,1.2-3.3,2.1-5.7,2.1C170.1,33.1,166.5,29.8,166.5,23.9z"/>
	<g>
		<g>
			<g>
				<path class="st0" d="M23.2,55L0.4,41.4V14L22.8,0.6L23,0.5l0.1,0.1L46,14.1l0,27.3L23.2,55z M1,41l22.2,13.3L45.4,41l0-26.6
					L23,1.1L1,14.3V41z"/>
				<path class="st0" d="M23.2,55.5L0,41.6V13.8L23,0l23.4,13.8l0,27.8L23.2,55.5z M1.4,40.8l21.8,13.1L45,40.8l0-26.2l-22-13
					l-21.6,13V40.8z"/>
			</g>
			<g>
				<polygon class="st0" points="15.4,5 28.8,3.9 29,4 41.9,43.4 41.3,43.6 28.5,4.5 15.7,5.6 5,43.5 4.5,43.4 15.2,5.1 				"/>
				<polygon class="st0" points="41.1,44.1 28.2,4.9 16,5.9 5.3,44 4,43.7 14.9,4.9 15.3,4.6 28.9,3.5 29.3,3.7 29.3,3.9 42.4,43.6 
									"/>
			</g>
			<g>
				<polygon class="st0" points="30.5,50.6 45.7,24 45.5,23.3 30.2,50 0.8,32.1 0.7,32.7 30.3,50.8 				"/>
				<polygon class="st0" points="30.3,51.2 0.3,32.9 0.5,31.4 30.1,49.5 45.6,22.3 46.1,24 46,24.2 30.8,50.9 				"/>
			</g>
		</g>
	</g>
	<polygon class="st0" points="121.5,37.5 125.2,37.5 123.3,40.7 	"/>
	<path class="st1" d="M130.4,37.5h4.7V38H131v3.2h3.4v0.5H131v3.8h4.2V46h-4.8V37.5z M136.5,41.7c0-2.7,1.5-4.4,3.7-4.4
		c1,0,1.8,0.5,2.2,1l-0.4,0.4c-0.5-0.5-1.1-0.9-1.9-0.9c-1.9,0-3,1.5-3,3.9c0,2.4,1.1,3.9,3,3.9c0.9,0,1.5-0.4,2.2-1.1l0.4,0.4
		c-0.7,0.8-1.4,1.2-2.5,1.2C138,46.2,136.5,44.5,136.5,41.7z M144.2,42.8v-5.3h0.6v5.2c0,2.3,1.1,3,2.3,3c1.2,0,2.3-0.7,2.3-3v-5.2
		h0.6v5.3c0,2.7-1.4,3.4-2.9,3.4C145.6,46.2,144.2,45.4,144.2,42.8z M154.1,37.5h0.6l3,8.6h-0.6l-1-2.9h-3.4l-1,2.9h-0.6L154.1,37.5
		z M155.9,42.6l-0.5-1.6c-0.3-1-0.6-1.9-1-3h-0.1c-0.3,1-0.6,1.9-0.9,3l-0.6,1.6H155.9z M159,37.5h2c2.6,0,3.9,1.7,3.9,4.3
		c0,2.6-1.3,4.3-3.9,4.3h-2V37.5z M161,45.5c2.3,0,3.3-1.6,3.3-3.8c0-2.2-1-3.7-3.3-3.7h-1.3v7.5H161z M166.3,41.7
		c0-2.7,1.5-4.4,3.5-4.4c2.1,0,3.5,1.7,3.5,4.4c0,2.7-1.5,4.5-3.5,4.5C167.8,46.2,166.3,44.4,166.3,41.7z M169.9,45.7
		c1.7,0,2.9-1.5,2.9-3.9c0-2.4-1.2-3.9-2.9-3.9c-1.7,0-2.9,1.5-2.9,3.9C167,44.1,168.1,45.7,169.9,45.7L169.9,45.7z M177.8,42.1H176
		V46h-0.6v-8.6h2.4c1.7,0,2.8,0.6,2.8,2.3c0,1.4-0.8,2.2-2.2,2.3l2.4,4h-0.7L177.8,42.1z M177.7,41.6c1.5,0,2.4-0.6,2.4-1.9
		c0-1.3-0.8-1.8-2.4-1.8H176v3.6H177.7z"/>
</g>
</svg>
