<svg id="Capa_1" data-name="Capa 1" xmlns="http://www.w3.org/2000/svg" viewBox="0 0 128 128"><defs><style>.cls-1{fill:#fff;stroke:#fff;stroke-miterlimit:10;stroke-width:2px;}</style></defs><title>ICONO</title><path class="cls-1" d="M64.35,122.75,15.28,93.31V34.48l48.29-29,.34-.2.28.17,49.24,29.07V93.31ZM16.51,92.62l47.84,28.7,47.84-28.7V35.26L63.91,6.75,16.51,35.17Z"/><polygon class="cls-1" points="47.51 15.14 76.39 12.69 76.76 12.91 104.56 97.69 103.39 98.07 75.82 13.97 48.18 16.31 25.23 97.99 24.05 97.66 47.18 15.34 47.51 15.14"/><polygon class="cls-1" points="80.09 113.31 112.77 55.93 112.28 54.42 79.42 112.01 16.22 73.39 16.03 74.72 79.63 113.58 80.09 113.31"/></svg>